<svg width="18" height="18" viewBox="0 0 18 18" fill="none" xmlns="http://www.w3.org/2000/svg">
<path d="M9.00033 4.83335C8.77932 4.83335 8.56736 4.92115 8.41108 5.07743C8.25479 5.23371 8.167 5.44567 8.167 5.66669V9.00002C8.167 9.22103 8.25479 9.433 8.41108 9.58928C8.56736 9.74556 8.77932 9.83335 9.00033 9.83335C9.22134 9.83335 9.43331 9.74556 9.58959 9.58928C9.74587 9.433 9.83366 9.22103 9.83366 9.00002V5.66669C9.83366 5.44567 9.74587 5.23371 9.58959 5.07743C9.43331 4.92115 9.22134 4.83335 9.00033 4.83335ZM9.767 12.0167C9.74876 11.9636 9.72354 11.9131 9.692 11.8667L9.592 11.7417C9.47481 11.6261 9.326 11.5477 9.16434 11.5166C9.00268 11.4854 8.83542 11.5029 8.68366 11.5667C8.58268 11.6089 8.48966 11.6681 8.40866 11.7417C8.33143 11.8196 8.27033 11.9119 8.22885 12.0134C8.18738 12.115 8.16636 12.2237 8.167 12.3334C8.16831 12.4423 8.19096 12.5498 8.23366 12.65C8.27109 12.7534 8.3308 12.8474 8.40857 12.9251C8.48633 13.0029 8.58025 13.0626 8.68366 13.1C8.78341 13.1441 8.89127 13.1669 9.00033 13.1669C9.10939 13.1669 9.21725 13.1441 9.317 13.1C9.42041 13.0626 9.51433 13.0029 9.59209 12.9251C9.66986 12.8474 9.72957 12.7534 9.767 12.65C9.8097 12.5498 9.83235 12.4423 9.83366 12.3334C9.83775 12.2779 9.83775 12.2222 9.83366 12.1667C9.81931 12.1135 9.79683 12.0629 9.767 12.0167ZM9.00033 0.666687C7.35215 0.666687 5.74099 1.15543 4.37058 2.07111C3.00017 2.98679 1.93206 4.28827 1.30133 5.81099C0.670603 7.33371 0.505575 9.00926 0.827119 10.6258C1.14866 12.2423 1.94234 13.7271 3.10777 14.8926C4.27321 16.058 5.75807 16.8517 7.37458 17.1732C8.99109 17.4948 10.6666 17.3297 12.1894 16.699C13.7121 16.0683 15.0136 15.0002 15.9292 13.6298C16.8449 12.2594 17.3337 10.6482 17.3337 9.00002C17.3337 7.90567 17.1181 6.82204 16.6993 5.81099C16.2805 4.79994 15.6667 3.88129 14.8929 3.10746C14.1191 2.33364 13.2004 1.71981 12.1894 1.30102C11.1783 0.882235 10.0947 0.666687 9.00033 0.666687ZM9.00033 15.6667C7.68179 15.6667 6.39286 15.2757 5.29653 14.5432C4.2002 13.8106 3.34572 12.7694 2.84113 11.5512C2.33655 10.3331 2.20453 8.99263 2.46176 7.69942C2.719 6.40621 3.35393 5.21833 4.28628 4.28598C5.21863 3.35363 6.40652 2.71869 7.69973 2.46145C8.99294 2.20422 10.3334 2.33624 11.5516 2.84082C12.7697 3.34541 13.8109 4.19989 14.5435 5.29622C15.276 6.39255 15.667 7.68148 15.667 9.00002C15.667 10.7681 14.9646 12.4638 13.7144 13.7141C12.4641 14.9643 10.7684 15.6667 9.00033 15.6667Z" fill="#FF2929"/>
</svg>
