<svg width="18" height="18" viewBox="0 0 18 18" fill="none" xmlns="http://www.w3.org/2000/svg">
<path d="M8.99984 4.83342C8.77883 4.83342 8.56687 4.92121 8.41059 5.07749C8.25431 5.23377 8.16651 5.44573 8.16651 5.66675V9.00008C8.16651 9.2211 8.25431 9.43306 8.41059 9.58934C8.56687 9.74562 8.77883 9.83342 8.99984 9.83342C9.22086 9.83342 9.43282 9.74562 9.5891 9.58934C9.74538 9.43306 9.83318 9.2211 9.83318 9.00008V5.66675C9.83318 5.44573 9.74538 5.23377 9.5891 5.07749C9.43282 4.92121 9.22086 4.83342 8.99984 4.83342ZM9.76651 12.0167C9.74827 11.9636 9.72305 11.9132 9.69151 11.8667L9.59151 11.7417C9.47432 11.6261 9.32551 11.5478 9.16385 11.5166C9.0022 11.4855 8.83493 11.5029 8.68318 11.5667C8.58219 11.6089 8.48918 11.6681 8.40818 11.7417C8.33094 11.8196 8.26984 11.912 8.22837 12.0135C8.1869 12.115 8.16587 12.2237 8.16651 12.3334C8.16783 12.4423 8.19047 12.5499 8.23318 12.6501C8.2706 12.7535 8.33031 12.8474 8.40808 12.9252C8.48585 13.0029 8.57976 13.0627 8.68318 13.1001C8.78293 13.1442 8.89078 13.1669 8.99984 13.1669C9.1089 13.1669 9.21676 13.1442 9.31651 13.1001C9.41992 13.0627 9.51384 13.0029 9.5916 12.9252C9.66937 12.8474 9.72908 12.7535 9.76651 12.6501C9.80921 12.5499 9.83186 12.4423 9.83318 12.3334C9.83727 12.2779 9.83727 12.2222 9.83318 12.1667C9.81883 12.1136 9.79634 12.063 9.76651 12.0167ZM8.99984 0.666748C7.35166 0.666748 5.7405 1.15549 4.37009 2.07117C2.99968 2.98685 1.93158 4.28834 1.30084 5.81105C0.670115 7.33377 0.505087 9.00933 0.82663 10.6258C1.14817 12.2423 1.94185 13.7272 3.10728 14.8926C4.27272 16.0581 5.75758 16.8517 7.37409 17.1733C8.9906 17.4948 10.6662 17.3298 12.1889 16.6991C13.7116 16.0683 15.0131 15.0002 15.9288 13.6298C16.8444 12.2594 17.3332 10.6483 17.3332 9.00008C17.3332 7.90573 17.1176 6.8221 16.6988 5.81105C16.2801 4.80001 15.6662 3.88135 14.8924 3.10752C14.1186 2.3337 13.1999 1.71987 12.1889 1.30109C11.1778 0.882296 10.0942 0.666748 8.99984 0.666748ZM8.99984 15.6667C7.6813 15.6667 6.39237 15.2758 5.29604 14.5432C4.19971 13.8107 3.34523 12.7695 2.84064 11.5513C2.33606 10.3331 2.20404 8.99269 2.46127 7.69948C2.71851 6.40627 3.35345 5.21839 4.2858 4.28604C5.21815 3.35369 6.40603 2.71875 7.69924 2.46151C8.99245 2.20428 10.3329 2.3363 11.5511 2.84088C12.7692 3.34547 13.8104 4.19995 14.543 5.29628C15.2755 6.39261 15.6665 7.68154 15.6665 9.00008C15.6665 10.7682 14.9641 12.4639 13.7139 13.7141C12.4636 14.9644 10.768 15.6667 8.99984 15.6667Z" fill="#FF2929"/>
</svg>
