<svg width="18" height="14" viewBox="0 0 18 14" fill="none" xmlns="http://www.w3.org/2000/svg">
<path d="M2.125 0.75C1.09717 0.75 0.25 1.59717 0.25 2.625V11.375C0.25 12.4028 1.09717 13.25 2.125 13.25H15.875C16.9028 13.25 17.75 12.4028 17.75 11.375V2.625C17.75 1.59717 16.9028 0.75 15.875 0.75H2.125ZM2.125 2H15.875C16.229 2 16.5 2.271 16.5 2.625V3.875H2.125V5.125H16.5V11.375C16.5 11.729 16.229 12 15.875 12H2.125C1.771 12 1.5 11.729 1.5 11.375V2.625C1.5 2.271 1.771 2 2.125 2Z" fill="#829BAE"/>
</svg>
