<svg width="46" height="42" viewBox="0 0 46 42" fill="none" xmlns="http://www.w3.org/2000/svg">
<path d="M42.6328 0.65625L36.6719 8.09375L31.0391 3.82812L29.6719 2.84375L28.6328 4.15625L22.5078 11.8125L16.7656 8.91406L15.3984 8.25781L14.5234 9.51562L8.5625 18.4844L3.03906 14.3281L0.960938 17.1719L7.96094 22.4219L9.4375 23.5156L10.4766 21.9844L16.6016 12.7969L22.2344 15.5859L23.4922 16.1875L24.3672 15.0938L30.3281 7.65625L35.9609 11.9219L37.3281 12.9062L38.3672 11.5938L45.3672 2.84375L42.6328 0.65625ZM42.25 14V42H45.75V14H42.25ZM28.25 19.25V42H31.75V19.25H28.25ZM14.25 21V42H17.75V21H14.25ZM35.25 22.75V42H38.75V22.75H35.25ZM0.25 24.5V42H3.75V24.5H0.25ZM21.25 24.5V42H24.75V24.5H21.25ZM7.25 29.75V42H10.75V29.75H7.25Z" fill="#829BAE"/>
</svg>