<svg width="42" height="42" viewBox="0 0 42 42" fill="none" xmlns="http://www.w3.org/2000/svg">
  <path d="M0 0V1.75V42H42V0H0ZM3.5 3.5H38.5V10.5H3.5V3.5ZM5.25 5.25V8.75H8.75V5.25H5.25ZM10.5 5.25V8.75H14V5.25H10.5ZM15.75 5.25V8.75H19.25V5.25H15.75ZM3.5 14H38.5V38.5H3.5V14ZM8.75 17.5V21.4717C8.21923 21.7792 7.77862 22.2209 7.47232 22.7524C7.16601 23.2839 7.00479 23.8866 7.00479 24.5C7.00479 25.1134 7.16601 25.7161 7.47232 26.2476C7.77862 26.7791 8.21923 27.2208 8.75 27.5283V35H12.25V27.5283C12.7808 27.2208 13.2214 26.7791 13.5277 26.2476C13.834 25.7161 13.9952 25.1134 13.9952 24.5C13.9952 23.8866 13.834 23.2839 13.5277 22.7524C13.2214 22.2209 12.7808 21.7792 12.25 21.4717V17.5H8.75ZM19.25 17.5V24.9717C18.7192 25.2792 18.2786 25.7209 17.9723 26.2524C17.666 26.7839 17.5048 27.3866 17.5048 28C17.5048 28.6134 17.666 29.2161 17.9723 29.7476C18.2786 30.2791 18.7192 30.7208 19.25 31.0283V35H22.75V31.0283C23.2808 30.7208 23.7214 30.2791 24.0277 29.7476C24.334 29.2161 24.4952 28.6134 24.4952 28C24.4952 27.3866 24.334 26.7839 24.0277 26.2524C23.7214 25.7209 23.2808 25.2792 22.75 24.9717V17.5H19.25ZM29.75 17.5V21.4717C29.2192 21.7792 28.7786 22.2209 28.4723 22.7524C28.166 23.2839 28.0048 23.8866 28.0048 24.5C28.0048 25.1134 28.166 25.7161 28.4723 26.2476C28.7786 26.7791 29.2192 27.2208 29.75 27.5283V35H33.25V27.5283C33.7808 27.2208 34.2214 26.7791 34.5277 26.2476C34.834 25.7161 34.9952 25.1134 34.9952 24.5C34.9952 23.8866 34.834 23.2839 34.5277 22.7524C34.2214 22.2209 33.7808 21.7792 33.25 21.4717V17.5H29.75Z" fill="#829BAE" />
</svg>