<svg width="49" height="49" viewBox="0 0 49 49" fill="none" xmlns="http://www.w3.org/2000/svg">
<path d="M0 0V42H25.9663C29.5517 46.2202 34.8934 48.5642 35.2188 48.6719L35.875 49L36.5312 48.6719C37.023 48.5074 49 43.2677 49 34.0977V24.5H47.3594C45.0196 24.5 43.3623 23.8812 42 23.2319V0H0ZM3.5 3.5H38.5V10.5H3.5V3.5ZM5.25 5.25V8.75H8.75V5.25H5.25ZM10.5 5.25V8.75H14V5.25H10.5ZM15.75 5.25V8.75H19.25V5.25H15.75ZM3.5 14H38.5V21.5195C37.6999 21.2079 36.8623 21 35.875 21C34.0708 21 32.7578 21.6541 31.4453 22.4731C29.8038 23.2921 27.8346 24.5 24.3906 24.5H22.75V34.0977C22.75 35.6876 23.1263 37.1523 23.7241 38.5H3.5V14ZM35.875 24.5C36.7622 24.5 37.454 24.8059 38.77 25.5356L38.8384 25.5698L38.9067 25.604L39.3989 25.8535C40.7727 26.5605 42.728 27.5634 45.5 27.8906V34.0977C45.5 39.9234 38.0327 44.0548 35.875 45.124C33.7173 44.0548 26.25 39.9234 26.25 34.0977V27.9009C29.1532 27.5806 31.1409 26.5607 32.5356 25.8467L33.0073 25.6074L33.1577 25.5322L33.2979 25.4434C34.4406 24.7276 35.0682 24.5 35.875 24.5Z" fill="#829BAE"/>
</svg>
