<svg width="50" height="26" viewBox="0 0 50 26" fill="none" xmlns="http://www.w3.org/2000/svg">
<path d="M12.75 0.75C6.00293 0.75 0.5 6.25293 0.5 13C0.5 19.7539 5.99609 25.25 12.75 25.25C17.877 25.25 21.0078 22.4336 23.4141 18.9609C22.6963 17.8057 22.0947 16.6641 21.5 15.5703C19.3535 19.1182 16.9473 21.75 12.75 21.75C7.92383 21.75 4 17.8262 4 13C4 8.14649 7.89649 4.25 12.75 4.25C15.5801 4.25 17.3779 5.26172 19.0391 6.98438C20.7002 8.70703 22.1016 11.1953 23.5234 13.8203C24.9453 16.4453 26.3877 19.207 28.5 21.4219C30.6123 23.6367 33.5244 25.25 37.25 25.25C43.9971 25.25 49.5 19.7471 49.5 13C49.5 6.24609 44.0039 0.75 37.25 0.75C32.1504 0.75 28.999 3.47754 26.5859 6.875C27.3037 8.00977 27.96 9.12402 28.5547 10.2109C30.6875 6.76562 33.0664 4.25 37.25 4.25C42.0762 4.25 46 8.17383 46 13C46 17.8535 42.1035 21.75 37.25 21.75C34.4678 21.75 32.7178 20.7383 31.0703 19.0156C29.4229 17.293 28.0146 14.8047 26.5859 12.1797C25.1572 9.55469 23.6875 6.79297 21.5547 4.57812C19.4219 2.36328 16.5098 0.75 12.75 0.75Z" fill="#829BAE"/>
</svg>
