<svg width="46" height="42" viewBox="0 0 46 42" fill="none" xmlns="http://www.w3.org/2000/svg">
<path d="M0.25 0.75V32.25H9V41.1641L11.8438 38.8672L20.1016 32.25H45.75V0.75H0.25ZM3.75 4.25H42.25V28.75H18.8984L18.4062 29.1328L12.5 33.8359V28.75H3.75V4.25ZM11.1328 7.75L10.75 8.95312L7.35938 19.4531L7.25 19.7266V21.75H10.75V20.2188L10.8047 20H14.1953L14.25 20.2188V21.75H17.75V19.7266L17.6406 19.4531L14.25 8.95312L13.8672 7.75H11.1328ZM30 11.25V13H24.75V16.5H32.5156C32.2217 17.0059 31.8936 17.5391 31.4766 18.0859C31.3467 18.2568 31.1826 18.4141 31.0391 18.5781C30.1846 17.792 29.5625 17.1016 29.5625 17.1016L26.9375 19.3984C26.9375 19.3984 27.5049 20.0068 28.3594 20.8203C27.334 21.374 26.1582 21.75 24.75 21.75V25.25C27.334 25.25 29.4941 24.3818 31.2031 23.1719C32.8164 24.2861 34.7578 25.25 37 25.25V21.75C36.0771 21.75 34.9355 21.2988 33.8281 20.6562C33.9648 20.4854 34.1357 20.3281 34.2656 20.1641C35.3936 18.6875 36.002 17.4297 36.3984 16.5H38.75V13H33.5V11.25H30ZM12.5 14.8594L13.0469 16.5H11.9531L12.5 14.8594Z" fill="#829BAE"/>
</svg>
