<svg width="56" height="36" viewBox="0 0 56 36" fill="none" xmlns="http://www.w3.org/2000/svg">
<path d="M3.5 0.5V24.4531L0.820312 28.5547V28.6094C0.334961 29.3477 0 30.2295 0 31.125C0 33.5449 1.95508 35.5 4.375 35.5H52.5C53.416 35.5 54.3525 35.1787 55.0156 34.5156C55.6787 33.8525 56 32.916 56 32V14.5C56 13.584 55.6787 12.6475 55.0156 11.9844C54.3525 11.3213 53.416 11 52.5 11H42V0.5H3.5ZM7 4H38.5V11H28C27.084 11 26.1475 11.3213 25.4844 11.9844C24.8213 12.6475 24.5 13.584 24.5 14.5V23.25H7V4ZM28 14.5H52.5V32H28V14.5ZM6.23438 26.75H24.5V32H4.375C3.99902 32 3.5 31.501 3.5 31.125C3.5 30.9883 3.52051 30.8242 3.71875 30.5234L6.23438 26.75ZM36.75 26.75V30.25H43.75V26.75H36.75Z" fill="#829BAE"/>
</svg>
