<svg width="24" height="24" viewBox="0 0 24 24" fill="none" xmlns="http://www.w3.org/2000/svg">
<path d="M23.4404 12.2245C23.4404 11.2412 23.3606 10.5237 23.1879 9.77957H11.96V14.2176H18.5505C18.4177 15.3205 17.7002 16.9814 16.1056 18.0975L16.0833 18.2461L19.6334 20.9963L19.8793 21.0208C22.1382 18.9347 23.4404 15.8652 23.4404 12.2245Z" fill="#4285F4"/>
<path d="M11.9601 23.9177C15.189 23.9177 17.8996 22.8546 19.8795 21.021L16.1058 18.0976C15.096 18.8019 13.7406 19.2935 11.9601 19.2935C8.79769 19.2935 6.11362 17.2074 5.15682 14.324L5.01657 14.3359L1.32513 17.1927L1.27686 17.3269C3.2434 21.2335 7.28284 23.9177 11.9601 23.9177Z" fill="#34A853"/>
<path d="M5.15649 14.324C4.90403 13.5799 4.75792 12.7826 4.75792 11.9588C4.75792 11.1349 4.90403 10.3377 5.14321 9.5936L5.13652 9.43513L1.39884 6.53241L1.27655 6.59058C0.466045 8.21168 0.000976562 10.0321 0.000976562 11.9588C0.000976562 13.8855 0.466045 15.7058 1.27655 17.3269L5.15649 14.324Z" fill="#FBBC05"/>
<path d="M11.9601 4.62406C14.2056 4.62406 15.7204 5.59405 16.5841 6.40464L19.9591 3.10931C17.8863 1.18263 15.1889 3.05176e-05 11.9601 3.05176e-05C7.28281 3.05176e-05 3.24339 2.68409 1.27686 6.5906L5.14351 9.59362C6.11359 6.71023 8.79765 4.62406 11.9601 4.62406Z" fill="#EB4335"/>
</svg>
