<svg width="22" height="14" viewBox="0 0 22 14" fill="none" xmlns="http://www.w3.org/2000/svg">
<path d="M11 6C9.3 6 8 4.7 8 3C8 1.3 9.3 0 11 0C12.7 0 14 1.3 14 3C14 4.7 12.7 6 11 6ZM11 2C10.4 2 10 2.4 10 3C10 3.6 10.4 4 11 4C11.6 4 12 3.6 12 3C12 2.4 11.6 2 11 2ZM17 14H5V11.2C5 9.3 7.5 8 11 8C14.5 8 17 9.3 17 11.2V14ZM7 12H15V11.2C15 10.8 13.6 10 11 10C8.4 10 7 10.9 7 11.2V12Z" fill="white"/>
<path opacity="0.3" d="M11 1C10.4696 1 9.96086 1.21071 9.58579 1.58579C9.21071 1.96086 9 2.46957 9 3C9 3.53043 9.21071 4.03914 9.58579 4.41421C9.96086 4.78929 10.4696 5 11 5C11.5304 5 12.0391 4.78929 12.4142 4.41421C12.7893 4.03914 13 3.53043 13 3C13 2.46957 12.7893 1.96086 12.4142 1.58579C12.0391 1.21071 11.5304 1 11 1ZM16 13C16 12.8 16 11.4 16 11.2C16 9.9 13.7 9 11 9C8.3 9 6 9.9 6 11.2C6 11.4 6 12.8 6 13H16Z" fill="white"/>
<path d="M18 2C17.4696 2 16.9609 2.21071 16.5858 2.58579C16.2107 2.96086 16 3.46957 16 4C16 4.53043 16.2107 5.03914 16.5858 5.41421C16.9609 5.78929 17.4696 6 18 6C18.5304 6 19.0391 5.78929 19.4142 5.41421C19.7893 5.03914 20 4.53043 20 4C20 3.46957 19.7893 2.96086 19.4142 2.58579C19.0391 2.21071 18.5304 2 18 2ZM22 12C22 11.8 22 10.4 22 10.2C22 8.9 20.2 8 18 8C15.8 8 14 8.9 14 10.2C14 10.2 16 11.7 16 12H22ZM4 2C3.46957 2 2.96086 2.21071 2.58579 2.58579C2.21071 2.96086 2 3.46957 2 4C2 4.53043 2.21071 5.03914 2.58579 5.41421C2.96086 5.78929 3.46957 6 4 6C4.53043 6 5.03914 5.78929 5.41421 5.41421C5.78929 5.03914 6 4.53043 6 4C6 3.46957 5.78929 2.96086 5.41421 2.58579C5.03914 2.21071 4.53043 2 4 2ZM6 12C6 11.7 8 10.2 8 10.2C8 8.9 6.2 8 4 8C1.8 8 0 8.9 0 10.2C0 10.4 0 11.8 0 12H6Z" fill="white"/>
</svg>
