<svg width="42" height="42" fill="none" xmlns="http://www.w3.org/2000/svg"><path d="M18.047 0c-1.664 0-3.328.234-4.969.703l-1.172.328L12 2.25a2.977 2.977 0 01-1.5 2.766 2.96 2.96 0 01-3.14-.094l-.985-.656-.89.796c-2.45 2.374-4.12 5.373-4.923 8.579l-.28 1.171 1.03.516C2.303 15.826 3 16.816 3 18c0 1.184-.697 2.174-1.688 2.672l-1.078.515.329 1.172c.392 1.576.966 3.153 1.828 4.641a18.238 18.238 0 003.093 3.938l.891.843.984-.656c.926-.61 2.116-.732 3.141-.14A2.966 2.966 0 0112 33.75l-.094 1.219 1.172.328c2.086.592 4.26.762 6.422.562V42H42V21h-6.61l-.703-.328C33.697 20.174 33 19.184 33 18c0-1.184.697-2.174 1.688-2.672l1.078-.515-.328-1.172c-.393-1.576-.967-3.153-1.829-4.641a18.24 18.24 0 00-3.093-3.938l-.844-.843-1.031.703a2.96 2.96 0 01-3.141.094l-.047-.047C24.47 4.37 23.936 3.334 24 2.25l.094-1.219-1.172-.328A17.765 17.765 0 0018.047 0zM18 3.14c1.113 0 2.244.13 3.328.376.317 1.64 1.113 3.175 2.672 4.078 1.576.908 3.328.802 4.922.234.756.809 1.488 1.676 2.062 2.672.58 1.008.944 2.068 1.266 3.14C30.973 14.737 30 16.19 30 18c0 1.096.322 2.115.844 3h-4.36c.34-.932.516-1.945.516-3 0-4.951-4.049-9-9-9s-9 4.049-9 9 4.049 9 9 9a9.04 9.04 0 001.5-.14v6a15.5 15.5 0 01-4.828-.329c-.31-1.658-1.096-3.216-2.672-4.125-1.576-.908-3.328-.802-4.922-.234-.762-.815-1.488-1.676-2.062-2.672-.58-1.008-.944-2.068-1.266-3.14C5.027 21.263 6 19.81 6 18c0-1.81-.973-3.264-2.25-4.36.65-2.138 1.816-4.083 3.375-5.765 1.576.54 3.316.615 4.875-.281 1.559-.897 2.355-2.438 2.672-4.078A14.98 14.98 0 0118 3.14zM18 12c3.328 0 6 2.672 6 6 0 1.096-.322 2.11-.844 3H19.5v2.766c-.486.134-.973.234-1.5.234-3.328 0-6-2.672-6-6s2.672-6 6-6zm4.5 12H39v1.5H22.5V24zm0 4.5H39V39H22.5V28.5zm10.922 1.172L30 33.094l-1.922-1.922-2.156 2.156 3 3L30 37.36l1.078-1.03 4.5-4.5-2.156-2.157z" fill="#F5F9FC"/></svg>