<svg width="14" height="18" viewBox="0 0 14 18" fill="none" xmlns="http://www.w3.org/2000/svg">
<path fill-rule="evenodd" clip-rule="evenodd" d="M2.8335 7.33332V4.83332C2.8335 2.53214 4.69898 0.666656 7.00016 0.666656C9.30135 0.666656 11.1668 2.53214 11.1668 4.83332V7.33332H12.0002C12.8905 7.33332 13.6668 7.9803 13.6668 8.8611V15.8055C13.6668 16.6863 12.8905 17.3333 12.0002 17.3333H2.00016C1.10987 17.3333 0.333496 16.6863 0.333496 15.8055V8.8611C0.333496 7.9803 1.10987 7.33332 2.00016 7.33332H2.8335ZM4.50016 7.33332H9.50016V4.83332C9.50016 3.45261 8.38087 2.33332 7.00016 2.33332C5.61945 2.33332 4.50016 3.45261 4.50016 4.83332V7.33332ZM2.00016 8.99999V15.6667H12.0002V8.99999H2.00016ZM7.00016 13.1667C6.53993 13.1667 6.16683 12.7936 6.16683 12.3333C6.16683 11.8731 6.53993 11.5 7.00016 11.5C7.4604 11.5 7.8335 11.8731 7.8335 12.3333C7.8335 12.7936 7.4604 13.1667 7.00016 13.1667Z" fill="#ADADB0"/>
</svg>
