<svg width="170" height="16" viewBox="0 0 170 16" fill="none" xmlns="http://www.w3.org/2000/svg">
<path d="M74.4827 16V10.0197H80.4029V6.7701H74.4601V3.38505H81.2164V0H70.8898V16H74.4827Z" fill="#1C2B6F"/>
<path d="M96.6126 16V12.615H90.0145V9.54584H95.9799V6.40903H90.0145V3.36248H96.59V0H86.4442V16H96.6126Z" fill="#1C2B6F"/>
<path d="M116.249 16V0H112.679V9.72637L106.668 0H102.33V16H105.877V5.48378L112.475 16H116.249Z" fill="#1C2B6F"/>
<path d="M125.978 12.6375V3.36248H128.057C130.52 3.36248 132.531 4.80677 132.531 8.01128C132.531 11.2158 130.52 12.6375 128.057 12.6375H125.978ZM128.192 16C133.028 16 136.259 12.9535 136.259 8.01128C136.259 3.06911 133.028 0 128.215 0H122.408V16H128.192Z" fill="#1C2B6F"/>
<path d="M151.683 16V12.615H145.085V9.54584H151.051V6.40903H145.085V3.36248H151.661V0H141.515V16H151.683Z" fill="#1C2B6F"/>
<path d="M165.106 16H169.037L165.784 9.52327C167.749 8.8237 168.947 7.1763 168.947 5.00987C168.947 2.16643 166.913 0 163.75 0H157.4V16H160.971V10.0423H162.236L165.106 16ZM160.971 6.9732V3.09168H163.072C164.541 3.09168 165.332 3.83639 165.332 5.03244C165.332 6.16079 164.541 6.9732 163.072 6.9732H160.971Z" fill="#1C2B6F"/>
<path d="M3.57022 12.6375V3.36248H5.64909C8.11209 3.36248 10.1232 4.80677 10.1232 8.01128C10.1232 11.2158 8.11209 12.6375 5.64909 12.6375H3.57022ZM5.78467 16C10.6203 16 13.8516 12.9535 13.8516 8.01128C13.8516 3.06911 10.6203 0 5.80726 0H0V16H5.78467Z" fill="#1C2B6F"/>
<path d="M28.9578 16H32.8443L26.8789 0H22.7438L16.7105 16H20.4615L21.6139 12.7504H27.8053L28.9578 16ZM24.7548 3.97179L26.6755 9.50071H22.789L24.7548 3.97179Z" fill="#1C2B6F"/>
<path d="M48.186 3.40762V0H34.7412V3.40762H39.6672V16H43.2374V3.40762H48.186Z" fill="#1C2B6F"/>
<path d="M62.3174 16H66.204L60.2385 0H56.1034L50.0702 16H53.8212L54.9736 12.7504H61.165L62.3174 16ZM58.1145 3.97179L60.0352 9.50071H56.1486L58.1145 3.97179Z" fill="#1C2B6F"/>
</svg>
