<svg width="148" height="14" fill="none" xmlns="http://www.w3.org/2000/svg"><path d="M65.088 14V8.767h5.173V5.924h-5.193V2.962h5.904V0h-9.024v14h3.14zM84.426 14v-2.962H78.66V8.353h5.213V5.608H78.66V2.942h5.746V0H75.54v14h8.886zM101.586 14V0h-3.12v8.51L93.213 0h-3.79v14h3.1V4.798L98.287 14h3.298zM110.088 11.058V2.942h1.816c2.152 0 3.91 1.264 3.91 4.068 0 2.804-1.758 4.048-3.91 4.048h-1.816zM112.023 14c4.225 0 7.049-2.666 7.049-6.99 0-4.325-2.824-7.01-7.03-7.01h-5.074v14h5.055zM132.55 14v-2.962h-5.765V8.353h5.213V5.608h-5.213V2.942h5.746V0h-8.866v14h8.885zM144.28 14h3.436l-2.844-5.667c1.718-.612 2.765-2.054 2.765-3.95 0-2.487-1.778-4.383-4.542-4.383h-5.549v14h3.12V8.787h1.106L144.28 14zm-3.614-7.898V2.705h1.837c1.283 0 1.974.652 1.974 1.698 0 .988-.691 1.699-1.974 1.699h-1.837zM3.12 11.058V2.942h1.817c2.152 0 3.91 1.264 3.91 4.068 0 2.804-1.758 4.048-3.91 4.048H3.12zM5.055 14c4.226 0 7.05-2.666 7.05-6.99C12.104 2.685 9.28 0 5.074 0H0v14h5.055zM25.305 14h3.396L23.488 0h-3.613l-5.272 14h3.278l1.007-2.843h5.41L25.305 14zM21.632 3.475l1.679 4.838h-3.397l1.718-4.838zM42.108 2.982V0H30.359v2.982h4.305V14h3.12V2.982h4.324zM54.457 14h3.396L52.64 0h-3.613l-5.273 14h3.278l1.007-2.843h5.41L54.458 14zM50.784 3.475l1.678 4.838h-3.396l1.718-4.838z" fill="#fff"/></svg>